<svg version="1.2" xmlns="http://www.w3.org/2000/svg" viewBox="0 0 960 960" width="960" height="960">
	<title>searchIcon-svg</title>
	<style>
		.s0 { fill: #000000 } 
	</style>
	<path id="Layer" fill-rule="evenodd" class="s0" d="m784 840l-252-252q-30 24-69 38-39 14-83 14-109 0-184.5-75.5-75.5-75.5-75.5-184.5 0-109 75.5-184.5 75.5-75.5 184.5-75.5 109 0 184.5 75.5 75.5 75.5 75.5 184.5 0 44-14 83-14 39-38 69l252 252zm-404-280q75 0 127.5-52.5 52.5-52.5 52.5-127.5 0-75-52.5-127.5-52.5-52.5-127.5-52.5-75 0-127.5 52.5-52.5 52.5-52.5 127.5 0 75 52.5 127.5 52.5 52.5 127.5 52.5z"/>
</svg>