<svg version="1.2" xmlns="http://www.w3.org/2000/svg" viewBox="0 0 960 960" width="960" height="960">
	<title>account-svg</title>
	<style>
		.s0 { fill: #000000 } 
	</style>
	<path id="Layer" fill-rule="evenodd" class="s0" d="m480 880q-83 0-156-31.5-73-31.5-127-85.5-54-54-85.5-127-31.5-73-31.5-156 0-83 31.5-156 31.5-73 85.5-127 54-54 127-85.5 73-31.5 156-31.5 83 0 156 31.5 73 31.5 127 85.5 54 54 85.5 127 31.5 73 31.5 156 0 83-31.5 156-31.5 73-85.5 127-54 54-127 85.5-73 31.5-156 31.5zm-246-196q51-39 114-61.5 63-22.5 132-22.5 69 0 132 22.5 63 22.5 114 61.5 35-41 54.5-93 19.5-52 19.5-111 0-133-93.5-226.5-93.5-93.5-226.5-93.5-133 0-226.5 93.5-93.5 93.5-93.5 226.5 0 59 19.5 111 19.5 52 54.5 93zm246-164q-59 0-99.5-40.5-40.5-40.5-40.5-99.5 0-59 40.5-99.5 40.5-40.5 99.5-40.5 59 0 99.5 40.5 40.5 40.5 40.5 99.5 0 59-40.5 99.5-40.5 40.5-99.5 40.5zm0 280q53 0 100-15.5 47-15.5 86-44.5-39-29-86-44.5-47-15.5-100-15.5-53 0-100 15.5-47 15.5-86 44.5 39 29 86 44.5 47 15.5 100 15.5zm0-360q26 0 43-17 17-17 17-43 0-26-17-43-17-17-43-17-26 0-43 17-17 17-17 43 0 26 17 43 17 17 43 17z"/>
</svg>