<svg xmlns="http://www.w3.org/2000/svg" version="1.1" xmlns:xlink="http://www.w3.org/1999/xlink" xmlns:svgjs="http://svgjs.dev/svgjs" width="1000" height="1125" viewBox="0 0 1000 1125"><g transform="matrix(1,0,0,1,0.0011008540699322111,0)"><svg viewBox="0 0 320 360" data-background-color="#aa5656" preserveAspectRatio="xMidYMid meet" height="1125" width="1000" xmlns="http://www.w3.org/2000/svg" xmlns:xlink="http://www.w3.org/1999/xlink"><g id="tight-bounds" transform="matrix(1,0,0,1,0.00010353528136874957,0)"><svg viewBox="0 0 320 360" height="360" width="320"><g><svg></svg></g><g><svg viewBox="0 0 320 360" height="360" width="320"><g><path d="M307.925 179.999l6.575-11.387c11.322-19.607 4.604-44.679-15.003-56.001l-11.387-6.575v-13.151c0-22.639-18.354-40.994-40.994-40.994h-13.151l-6.575-11.387c-11.322-19.607-36.393-26.325-56.001-15.003l-11.39 6.572-11.387-6.576c-19.607-11.318-44.679-4.6-56.001 15.007l-6.575 11.387h-13.151c-22.639 0-40.994 18.354-40.994 40.994v13.151l-11.387 6.575c-19.607 11.322-26.325 36.393-15.003 56.001l6.572 11.387-6.576 11.387c-11.318 19.607-4.6 44.679 15.007 56l11.387 6.576v13.15c0 22.639 18.354 40.994 40.994 40.994h13.151l6.575 11.387c11.322 19.607 36.393 26.325 56.001 15.003l11.387-6.571 11.387 6.575c19.607 11.322 44.679 4.604 56-15.003l6.576-11.387h13.15c22.639 0 40.994-18.354 40.994-40.994v-13.151l11.387-6.575c19.607-11.322 26.325-36.393 15.003-56.001zM297.702 115.716c8.655 4.996 14.842 13.062 17.428 22.713 2.586 9.65 1.261 19.734-3.735 28.384l-5.538 9.596-17.747-30.74v-35.494zM251.155 271.155l-57.791 33.365h-66.731l-57.791-33.365-33.365-57.791v-66.731l33.365-57.791 57.791-33.365h66.731l57.791 33.365 33.365 57.791v66.731zM284.517 220.539v31.351l-27.151 15.676zM247.566 277.366l-15.676 27.151h-31.351zM187.15 308.106l-27.151 15.676-27.151-15.676zM119.459 304.517h-31.352l-15.676-27.151zM62.632 267.566l-27.151-15.676v-31.351zM31.891 207.15l-15.675-27.151 15.675-27.151zM35.481 139.459v-31.352l27.151-15.676zM72.431 82.632l15.676-27.151h31.352zM132.848 51.891l27.151-15.675 27.151 15.675zM200.539 55.481h31.351l15.676 27.151zM257.366 92.431l27.151 15.676v31.352zM288.106 152.848l15.676 27.151-15.676 27.151zM247.112 55.481c9.992 0 19.384 3.889 26.452 10.956 7.063 7.063 10.956 16.46 10.957 26.452v11.079l-30.741-17.747-17.747-30.74zM173.18 28.606c8.655-4.996 18.735-6.322 28.385-3.735 9.65 2.586 17.716 8.777 22.712 17.428l5.538 9.596h-35.494l-30.741-17.747zM95.716 42.295c4.996-8.655 13.062-14.842 22.713-17.428 9.65-2.586 19.734-1.261 28.384 3.736l9.596 5.537-30.74 17.747h-35.494zM35.481 92.885c0-9.992 3.889-19.384 10.956-26.452 7.063-7.063 16.46-10.956 26.452-10.956h11.079l-17.747 30.74-30.74 17.747zM8.606 166.817c-4.996-8.655-6.322-18.735-3.735-28.385 2.586-9.65 8.777-17.716 17.428-22.712l9.596-5.538v35.495l-17.747 30.74zM22.295 244.281c-8.655-4.996-14.842-13.062-17.428-22.712-2.586-9.65-1.261-19.734 3.736-28.385l5.537-9.596 17.747 30.74v35.495zM72.885 304.517c-9.992 0-19.384-3.889-26.452-10.957-7.063-7.063-10.956-16.46-10.956-26.451v-11.08l30.74 17.747 17.747 30.741zM146.817 331.391c-8.655 4.996-18.735 6.322-28.385 3.735-9.65-2.586-17.716-8.777-22.712-17.428l-5.538-9.596h35.495l30.74 17.747zM224.281 317.702c-4.996 8.655-13.062 14.842-22.712 17.428-9.65 2.586-19.734 1.261-28.385-3.735l-9.596-5.538 30.74-17.747h35.495zM284.517 267.112c0 9.992-3.889 19.384-10.957 26.452-7.063 7.063-16.46 10.956-26.451 10.957h-11.08l17.747-30.741 30.741-17.747zM315.13 221.565c-2.586 9.65-8.777 17.716-17.428 22.712l-9.596 5.538v-35.494l17.747-30.741 5.538 9.596c4.996 8.658 6.326 18.739 3.739 28.389z" fill="#ffffff" fill-rule="nonzero" stroke="none" stroke-width="1" stroke-linecap="butt" stroke-linejoin="miter" stroke-miterlimit="10" stroke-dasharray="" stroke-dashoffset="0" font-family="none" font-weight="none" font-size="none" text-anchor="none" style="mix-blend-mode: normal" data-fill-palette-color="tertiary"></path></g><g transform="matrix(1,0,0,1,64,151.94805194805195)"><svg viewBox="0 0 192 56.103896103896105" height="56.103896103896105" width="192"><g><svg viewBox="0 0 192 56.103896103896105" height="56.103896103896105" width="192"><g><svg viewBox="0 0 192 56.103896103896105" height="56.103896103896105" width="192"><g><svg viewBox="0 0 192 56.103896103896105" height="56.103896103896105" width="192"><g id="textblocktransform"><svg viewBox="0 0 192 56.103896103896105" height="56.103896103896105" width="192" id="textblock"><g><svg viewBox="0 0 192 56.103896103896105" height="56.103896103896105" width="192"><g transform="matrix(1,0,0,1,0,0)"><svg width="192" viewBox="1.49 -42.19 150.38 43.949999999999996" height="56.103896103896105" data-palette-color="#ffffff"><path d="M27.86-38.67L1.49-38.67 1.49-40.43 27.86-40.43 27.86-38.67ZM27.86-35.16L1.49-35.16 1.49-36.91 27.86-36.91 27.86-35.16ZM8.52-31.64L1.49-31.64 1.49-33.4 27.86-33.4 27.86-31.64 20.83-31.64 20.83 0 19.07 0 19.07-31.64 17.31-31.64 17.31 0 15.55 0 15.55-31.64 13.79-31.64 13.79 0 12.04 0 12.04-31.64 10.28-31.64 10.28 0 8.52 0 8.52-31.64ZM60.54-40.43L60.54-19.46 58.79-22.36 58.79-40.43 60.54-40.43ZM64.06-40.43L64.06-13.7 62.3-16.65 62.3-40.43 64.06-40.43ZM67.58-40.43L67.58-7.86 65.82-10.84 65.82-40.43 67.58-40.43ZM42.38 0L42.38-20.97 44.14-18.07 44.14 0 42.38 0ZM38.86 0L38.86-26.73 40.62-23.78 40.62 0 38.86 0ZM35.35 0L35.35-32.57 37.11-29.59 37.11 0 35.35 0ZM60.81 0L35.96-40.43 38.01-40.43 62.86 0 60.81 0ZM64.91 0L40.11-40.43 42.19-40.43 67.01 0 64.91 0ZM69.02 0L44.24-40.43 46.29-40.43 69.33-2.86 69.33-40.43 71.09-40.43 71.09 0Q71.09 0 69.02 0L69.02 0ZM56.69 0L33.59-37.57 33.59 0 31.83 0 31.83-40.43Q31.83-40.43 33.93-40.43L33.93-40.43 58.71 0 56.69 0ZM108.03 0L108.03-21.12 109.79-21.12 109.79 0 108.03 0ZM115.06 0L115.06-21.12 116.82-21.12 116.82 0 115.06 0ZM111.54 0L111.54-21.12 113.3-21.12 113.3 0 111.54 0ZM104.51-21.12L106.27-21.12 106.27 0Q101.63 1.76 96.65 1.76L96.65 1.76Q92.33 1.76 88.37 0.17 84.42-1.42 81.42-4.24 78.41-7.06 76.62-11.22 74.82-15.38 74.82-20.21L74.82-20.21Q74.82-24.68 76.57-28.75 78.32-32.81 81.26-35.75 84.2-38.7 88.26-40.44 92.33-42.19 96.8-42.19L96.8-42.19Q102.36-42.19 107.15-39.6 111.93-37.01 114.96-32.57L114.96-32.57 113.5-31.62Q110.71-35.69 106.31-38.06 101.9-40.43 96.8-40.43L96.8-40.43Q92.7-40.43 88.95-38.83 85.2-37.23 82.49-34.52 79.78-31.81 78.18-28.06 76.58-24.32 76.58-20.21L76.58-20.21Q76.58-15.8 78.23-11.96 79.88-8.13 82.62-5.54 85.37-2.95 89.01-1.48 92.65 0 96.58 0L96.58 0Q100.7 0 104.51-1.29L104.51-1.29 104.51-2.98Q100.87-1.76 96.87-1.76L96.87-1.76Q93.96-1.76 91.22-2.58 88.47-3.39 86.14-4.99 83.81-6.59 82.06-8.8 80.32-11.01 79.33-13.95 78.34-16.89 78.34-20.21L78.34-20.21Q78.34-25.22 80.82-29.47 83.3-33.72 87.54-36.19 91.79-38.67 96.8-38.67L96.8-38.67Q101.48-38.67 105.51-36.49 109.54-34.3 112.08-30.57L112.08-30.57 110.62-29.61Q108.32-32.98 104.67-34.95 101.02-36.91 96.8-36.91L96.8-36.91Q93.4-36.91 90.3-35.6 87.2-34.28 84.97-32.04 82.73-29.81 81.42-26.71 80.1-23.61 80.1-20.21L80.1-20.21Q80.1-17.16 80.99-14.49 81.88-11.82 83.45-9.83 85.03-7.84 87.13-6.41 89.23-4.98 91.71-4.25 94.18-3.52 96.8-3.52L96.8-3.52Q100.85-3.52 104.51-4.88L104.51-4.88 104.51-6.64Q100.9-5.25 96.97-5.25L96.97-5.25Q93.99-5.25 91.28-6.26 88.57-7.28 86.46-9.13 84.35-10.99 83.1-13.87 81.86-16.75 81.86-20.21L81.86-20.21Q81.86-24.27 83.86-27.71 85.86-31.15 89.3-33.15 92.74-35.16 96.8-35.16L96.8-35.16Q100.58-35.16 103.84-33.4 107.1-31.64 109.15-28.61L109.15-28.61 107.69-27.66Q105.88-30.3 103.01-31.85 100.14-33.4 96.8-33.4L96.8-33.4Q93.21-33.4 90.18-31.63 87.15-29.86 85.38-26.83 83.61-23.8 83.61-20.21L83.61-20.21Q83.61-17.72 84.32-15.58 85.03-13.43 86.27-11.87 87.52-10.3 89.19-9.2 90.86-8.11 92.79-7.56 94.72-7.01 96.8-7.01L96.8-7.01Q100.92-7.01 104.51-8.64L104.51-8.64 104.51-10.33Q101.04-8.79 97.02-8.79L97.02-8.79Q94.7-8.79 92.65-9.5 90.6-10.21 88.95-11.57 87.3-12.94 86.34-15.17 85.37-17.41 85.37-20.21L85.37-20.21Q85.37-22.53 86.27-24.65 87.18-26.76 88.72-28.3 90.25-29.83 92.37-30.74 94.48-31.64 96.8-31.64L96.8-31.64Q99.7-31.64 102.19-30.29 104.68-28.93 106.25-26.61L106.25-26.61 104.8-25.66Q103.49-27.61 101.37-28.75 99.26-29.88 96.8-29.88L96.8-29.88Q92.79-29.88 89.96-27.05 87.13-24.22 87.13-20.21L87.13-20.21Q87.13-17.75 87.93-15.86 88.74-13.96 90.14-12.83 91.55-11.69 93.27-11.12 94.99-10.55 96.97-10.55L96.97-10.55Q101.02-10.55 104.51-12.23L104.51-12.23 104.51-21.12ZM137.47-24.61L137.47-24.61 134.51-24.61Q132.63-24.61 131.8-25.57 130.97-26.54 130.97-28.13L130.97-28.13Q130.97-31.64 136.22-31.64L136.22-31.64Q141.15-31.64 143.64-30.18L143.64-30.18 142.23-29.1Q140.52-29.88 136.22-29.88L136.22-29.88Q134.12-29.88 133.4-29.42 132.68-28.96 132.68-28.13 132.68-27.29 133.07-26.83 133.46-26.37 134.51-26.37L134.51-26.37 137.54-26.37Q140.84-26.37 143.49-25.24 146.14-24.12 147.84-22.18 149.55-20.24 150.46-17.71 151.36-15.19 151.36-12.3L151.36-12.3Q151.36-9.96 150.7-7.86 150.04-5.76 148.71-4 147.38-2.25 145.51-0.96 143.64 0.32 141.07 1.04 138.49 1.76 135.49 1.76L135.49 1.76Q130.78 1.76 126.66 0.33 122.55-1.1 119.82-3.66L119.82-3.66 121.23-4.71Q123.72-2.47 127.47-1.23 131.22 0 135.49 0L135.49 0Q138.84 0 141.53-0.96 144.23-1.93 145.98-3.61 147.72-5.3 148.66-7.52 149.6-9.74 149.6-12.3L149.6-12.3Q149.6-15.7 148.23-18.44 146.87-21.19 144.07-22.9 141.28-24.61 137.47-24.61ZM134.51-22.85L134.51-22.85 137.3-22.85Q142.25-22.85 145.05-19.82 147.84-16.8 147.84-12.3L147.84-12.3Q147.84-7.74 144.6-4.75 141.35-1.76 135.49-1.76L135.49-1.76Q131.58-1.76 128.19-2.83 124.8-3.91 122.55-5.86L122.55-5.86 123.92-6.96Q125.92-5.32 128.96-4.42 132-3.52 135.49-3.52L135.49-3.52Q140.64-3.52 143.36-5.98 146.09-8.45 146.09-12.3L146.09-12.3Q146.09-16.11 143.8-18.6 141.52-21.09 137.27-21.09L137.27-21.09 134.51-21.09Q130.95-21.09 129.17-23.05 127.39-25 127.39-28.13 127.39-31.25 129.59-33.2 131.8-35.16 136.22-35.16L136.22-35.16Q139.32-35.16 141.98-34.44 144.65-33.72 146.38-32.37L146.38-32.37 144.99-31.3Q141.94-33.4 136.22-33.4L136.22-33.4Q132.54-33.4 130.84-31.95 129.14-30.49 129.14-28.13L129.14-28.13Q129.14-25.73 130.4-24.29 131.66-22.85 134.51-22.85ZM134.51-19.34L134.51-19.34 137.2-19.34Q140.76-19.34 142.55-17.36 144.33-15.38 144.33-12.3L144.33-12.3Q144.33-9.18 142.12-7.23 139.91-5.27 135.49-5.27L135.49-5.27Q132.39-5.27 129.72-5.99 127.04-6.71 125.31-8.06L125.31-8.06 126.7-9.13Q129.75-7.03 135.49-7.03L135.49-7.03Q139.18-7.03 140.87-8.48 142.57-9.94 142.57-12.3 142.57-14.67 141.3-16.13 140.03-17.58 137.18-17.58L137.18-17.58 134.51-17.58Q129.51-17.58 126.69-20.57 123.87-23.56 123.87-28.13 123.87-32.69 127.12-35.68 130.36-38.67 136.22-38.67L136.22-38.67Q140.13-38.67 143.51-37.6 146.89-36.52 149.14-34.57L149.14-34.57 147.77-33.47Q145.77-35.11 142.74-36.01 139.71-36.91 136.22-36.91L136.22-36.91Q131.07-36.91 128.35-34.45 125.63-31.98 125.63-28.13L125.63-28.13Q125.63-24.29 127.92-21.81 130.22-19.34 134.51-19.34ZM134.51-15.82L134.51-15.82 137.2-15.82Q139.08-15.82 139.91-14.84 140.74-13.87 140.74-12.3L140.74-12.3Q140.74-8.79 135.49-8.79L135.49-8.79Q130.53-8.79 128.04-10.25L128.04-10.25 129.46-11.33Q131.17-10.55 135.49-10.55L135.49-10.55Q137.59-10.55 138.31-11.01 139.03-11.47 139.03-12.3L139.03-12.3Q139.03-13.11 138.63-13.59 138.22-14.06 137.15-14.06L137.15-14.06 134.51-14.06Q131.14-14.06 128.42-15.16 125.7-16.26 123.95-18.19 122.21-20.12 121.28-22.66 120.35-25.2 120.35-28.13L120.35-28.13Q120.35-30.47 121.01-32.57 121.67-34.67 123-36.43 124.33-38.18 126.2-39.47 128.07-40.75 130.64-41.47 133.22-42.19 136.22-42.19L136.22-42.19Q140.93-42.19 145.04-40.76 149.14-39.33 151.87-36.77L151.87-36.77 150.46-35.72Q147.97-37.96 144.23-39.2 140.5-40.43 136.22-40.43L136.22-40.43Q132.88-40.43 130.18-39.47 127.48-38.5 125.74-36.82 123.99-35.13 123.05-32.91 122.11-30.69 122.11-28.13L122.11-28.13Q122.11-24.68 123.5-21.92 124.89-19.17 127.75-17.49 130.61-15.82 134.51-15.82Z" opacity="1" transform="matrix(1,0,0,1,0,0)" fill="#ffffff" class="undefined-text-0" data-fill-palette-color="primary" id="text-0"></path></svg></g></svg></g></svg></g></svg></g><g></g></svg></g></svg></g></svg></g></svg></g><defs></defs></svg><rect width="320" height="360" fill="none" stroke="none" visibility="hidden"></rect></g></svg></g></svg>